<?xml version="1.0" standalone="no"?>
<!DOCTYPE svg PUBLIC "-//W3C//DTD SVG 20010904//EN"
 "http://www.w3.org/TR/2001/REC-SVG-20010904/DTD/svg10.dtd">
<svg version="1.0" xmlns="http://www.w3.org/2000/svg"
 width="314.000000pt" height="314.000000pt" viewBox="0 0 314.000000 314.000000"
 preserveAspectRatio="xMidYMid meet">
<metadata>
Created by potrace 1.11, written by Peter Selinger 2001-2013
</metadata>
<g transform="translate(0.000000,314.000000) scale(0.100000,-0.100000)"
fill="#000000" stroke="none">
<path d="M210 3131 c-83 -26 -142 -75 -182 -151 l-23 -45 0 -1365 0 -1365 27
-50 c31 -60 67 -95 128 -127 l45 -23 1365 0 1365 0 50 27 c60 31 95 67 127
128 l23 45 0 1365 0 1365 -27 50 c-31 60 -67 95 -128 127 l-45 23 -1350 2
c-742 1 -1361 -2 -1375 -6z m2320 -386 c35 -18 60 -62 60 -105 0 -103 -117
-157 -193 -90 l-34 29 -712 -214 c-393 -118 -715 -216 -717 -218 -2 -2 -1 -18
2 -35 l6 -31 772 -3 771 -3 57 -28 c31 -15 68 -43 83 -62 56 -75 55 -57 55
-676 0 -405 -3 -583 -12 -610 -16 -55 -73 -118 -132 -145 l-51 -24 -920 0
-920 0 -50 24 c-60 28 -97 66 -124 126 -20 44 -21 63 -21 625 0 543 2 583 19
621 23 51 83 110 128 126 28 10 34 18 40 51 7 44 42 91 84 112 17 9 55 15 96
15 59 -1 167 27 797 203 l728 203 14 39 c8 22 14 41 14 43 0 1 15 11 33 22 38
24 87 26 127 5z"/>
<path d="M700 1735 l0 -175 565 0 565 0 0 175 0 175 -565 0 -565 0 0 -175z"/>
<path d="M1910 1735 l0 -175 260 0 260 0 0 175 0 175 -260 0 -260 0 0 -175z"/>
<path d="M2089 1309 c-61 -17 -131 -79 -164 -144 -73 -143 -10 -310 143 -377
64 -29 172 -22 235 15 188 111 187 378 -3 481 -58 32 -149 42 -211 25z m164
-137 c64 -38 88 -149 45 -212 -87 -126 -278 -69 -278 83 0 124 124 193 233
129z"/>
<path d="M722 1294 c-22 -15 -22 -19 -22 -249 0 -199 2 -236 16 -249 20 -20
38 -20 58 0 14 14 16 47 14 251 -3 225 -4 236 -23 249 -18 12 -24 11 -43 -2z"/>
<path d="M1080 1302 c-37 -11 -40 -31 -40 -257 0 -183 3 -224 16 -243 8 -12
24 -22 34 -22 10 0 26 10 34 22 13 19 16 59 16 241 0 122 -4 226 -10 236 -11
22 -29 30 -50 23z"/>
<path d="M1242 1294 c-22 -15 -22 -19 -22 -255 l0 -239 25 -12 c21 -9 28 -8
45 7 19 18 20 28 18 253 -3 224 -4 235 -23 248 -18 12 -24 11 -43 -2z"/>
<path d="M1412 1294 c-22 -15 -22 -19 -22 -249 0 -199 2 -236 16 -249 20 -20
38 -20 58 0 14 14 16 47 14 251 -3 225 -4 236 -23 249 -18 12 -24 11 -43 -2z"/>
<path d="M882 1288 c-9 -9 -12 -77 -12 -243 0 -212 2 -233 18 -248 10 -10 25
-17 33 -17 36 0 39 19 39 260 0 248 -2 260 -45 260 -12 0 -26 -5 -33 -12z"/>
<path d="M1571 1281 c-7 -12 -11 -104 -11 -244 0 -204 2 -225 18 -240 10 -10
26 -17 34 -17 35 0 38 22 36 271 l-3 244 -32 3 c-23 2 -34 -2 -42 -17z"/>
</g>
</svg>
