<?xml version="1.0" standalone="no"?>
<!DOCTYPE svg PUBLIC "-//W3C//DTD SVG 20010904//EN"
 "http://www.w3.org/TR/2001/REC-SVG-20010904/DTD/svg10.dtd">
<svg version="1.0" xmlns="http://www.w3.org/2000/svg"
 width="300.000000pt" height="300.000000pt" viewBox="0 0 300.000000 300.000000"
 preserveAspectRatio="xMidYMid meet">
<metadata>
Created by potrace 1.11, written by Peter Selinger 2001-2013
</metadata>
<g transform="translate(0.000000,300.000000) scale(0.100000,-0.100000)"
fill="#000000" stroke="none">
<path d="M2637 2955 c-59 -20 -102 -68 -110 -124 -2 -11 -5 -23 -8 -25 -3 -3
-129 -40 -280 -81 -150 -42 -389 -108 -529 -147 -140 -39 -268 -74 -285 -78
-16 -5 -169 -47 -340 -95 -518 -144 -520 -145 -574 -136 -58 9 -110 -5 -156
-42 -42 -33 -75 -94 -75 -137 0 -27 -6 -33 -53 -56 -69 -32 -130 -93 -165
-163 l-27 -56 -3 -740 c-3 -758 -2 -784 36 -859 27 -55 101 -123 165 -152 l62
-29 1190 -1 c1305 -1 1243 -4 1334 59 59 41 85 70 118 137 l28 55 0 765 0 765
-27 56 c-35 70 -97 132 -168 167 l-55 27 -1014 5 c-994 5 -1014 5 -1017 24 -2
11 -5 29 -8 41 -5 20 11 26 252 99 141 43 271 81 287 86 17 4 82 24 145 43 63
19 153 47 200 60 47 14 162 49 255 77 94 29 184 56 200 60 44 12 219 65 384
115 l144 44 40 -34 c55 -48 111 -55 174 -24 83 42 113 131 73 214 -36 74 -115
107 -193 80z m-820 -1114 c22 -1 22 -1 21 -226 l0 -225 -734 0 -734 0 0 215
c0 118 0 218 -1 223 0 4 9 9 21 12 16 4 1323 5 1427 1z m791 0 l22 -1 0 -225
0 -225 -339 0 -339 0 0 224 0 225 26 3 c22 2 554 2 630 -1z m-218 -787 c164
-49 263 -187 256 -359 -10 -262 -285 -418 -523 -297 -200 103 -250 376 -99
547 44 51 124 102 173 111 15 3 30 7 32 10 10 10 112 3 161 -12z m-1926 -20
c19 -18 18 5 18 -348 1 -278 0 -280 -22 -298 -29 -23 -45 -23 -70 2 -19 19
-20 33 -20 322 0 266 2 304 17 320 20 22 56 23 77 2z m230 -6 c14 -19 16 -66
16 -318 0 -162 -4 -300 -8 -306 -25 -38 -80 -36 -100 4 -5 9 -8 151 -7 314 0
284 1 298 20 312 29 22 62 19 79 -6z m221 8 c18 -13 20 -30 20 -308 1 -161 -3
-305 -8 -320 -15 -48 -88 -44 -101 7 -3 11 -6 148 -6 305 0 242 2 289 16 308
17 25 51 29 79 8z m227 -3 c17 -15 18 -38 18 -318 0 -226 -3 -305 -12 -317
-21 -26 -53 -30 -78 -10 -22 18 -22 18 -22 321 0 273 2 304 18 322 21 23 51
24 76 2z m231 -4 c12 -17 15 -72 15 -302 1 -155 -1 -294 -4 -308 -9 -46 -71
-59 -100 -21 -7 9 -10 118 -10 319 1 290 2 305 20 319 28 20 63 17 79 -7z
m221 5 c18 -17 17 -10 16 -389 0 -232 -1 -241 -22 -258 -23 -19 -55 -15 -75
11 -10 12 -13 91 -13 316 0 265 2 302 17 318 20 22 56 23 77 2z"/>
<path d="M2242 910 c-51 -12 -109 -58 -132 -105 -66 -137 29 -295 178 -295
121 0 205 83 205 200 0 137 -115 229 -251 200z"/>
</g>
</svg>
