<svg width="113" height="26" viewBox="0 0 113 26" fill="none" xmlns="http://www.w3.org/2000/svg">
<path d="M3.652 15.56V26H0.52V0.799998H7.288C9.328 0.799998 10.864 1.256 11.896 2.168C12.952 3.056 13.48 4.472 13.48 6.416V9.872C13.48 12.584 12.4 14.276 10.24 14.948L15.244 26H11.824L7.18 15.56H3.652ZM10.348 6.092C10.348 5.18 10.132 4.52 9.7 4.112C9.292 3.704 8.632 3.5 7.72 3.5H3.652V12.86H7.72C8.632 12.86 9.292 12.656 9.7 12.248C10.132 11.816 10.348 11.144 10.348 10.232V6.092ZM23.6694 19.628L22.2654 26H19.0614L25.1454 0.799998H29.2854L35.2614 26H32.0574L30.6894 19.628H23.6694ZM30.1134 16.928L27.1614 3.176L24.2454 16.928H30.1134ZM53.3708 20.312C53.3708 22.376 52.8908 23.84 51.9308 24.704C50.9948 25.568 49.4348 26 47.2508 26H39.8348V0.799998H46.8188C48.9788 0.799998 50.6108 1.244 51.7148 2.132C52.8188 2.996 53.3708 4.424 53.3708 6.416V20.312ZM50.2388 6.092C50.2388 5.3 49.9988 4.676 49.5188 4.22C49.0388 3.74 48.4028 3.5 47.6108 3.5H42.9668V23.3H47.5748C48.4868 23.3 49.1588 23.096 49.5908 22.688C50.0228 22.256 50.2388 21.584 50.2388 20.672V6.092ZM67.8442 22.4V26H64.2442V22.4H67.8442ZM83.9016 23.372V3.428H80.6616V0.799998H90.2736V3.428H87.0336V23.372H90.2736V26H80.6616V23.372H83.9016ZM112.127 19.88C112.127 21.92 111.563 23.456 110.435 24.488C109.331 25.496 107.735 26 105.647 26H104.207C102.119 26 100.511 25.496 99.383 24.488C98.279 23.456 97.727 21.92 97.727 19.88V6.92C97.727 4.88 98.279 3.356 99.383 2.348C100.511 1.316 102.119 0.799998 104.207 0.799998H105.647C107.735 0.799998 109.331 1.316 110.435 2.348C111.563 3.356 112.127 4.88 112.127 6.92V19.88ZM108.995 6.236C108.995 5.492 108.719 4.856 108.167 4.328C107.615 3.8 106.895 3.536 106.007 3.536H103.847C102.959 3.536 102.239 3.8 101.687 4.328C101.135 4.856 100.859 5.492 100.859 6.236V20.564C100.859 21.308 101.135 21.944 101.687 22.472C102.239 23 102.959 23.264 103.847 23.264H106.007C106.895 23.264 107.615 23 108.167 22.472C108.719 21.944 108.995 21.308 108.995 20.564V6.236Z" fill="#FFAA10"/>
</svg>
