<svg width="24" height="24" viewBox="0 0 75 75" fill="none" xmlns="http://www.w3.org/2000/svg">
<path d="M46.11 67.515C44.31 68.1075 42.5025 68.4075 40.7025 68.4075C38.3775 68.4075 36.345 67.9275 34.6125 66.96C32.88 66 31.755 64.6875 31.23 63.0225C31.02 62.3925 30.915 61.7475 30.915 61.08C30.915 58.98 31.8225 56.9475 33.63 54.99C35.4375 53.0325 37.785 51.5775 40.65 50.6325C41.07 50.5125 41.58 50.3925 42.1725 50.28C42.765 50.1675 43.4175 50.07 44.13 49.9875C44.8425 49.9125 45.48 49.8675 46.0575 49.8675C46.9125 49.8675 47.565 49.9575 48 50.13V8.18247C48 7.74747 48.1575 7.36497 48.4725 7.05747C48.7875 6.74247 49.1625 6.58498 49.5975 6.58498H54.27C54.495 6.58498 54.705 6.62997 54.9 6.71997C55.095 6.80997 55.26 6.92247 55.395 7.06497C55.5375 7.20747 55.65 7.37248 55.7325 7.55998C55.8225 7.75498 55.8675 7.96497 55.8675 8.18997V9.63748C56.46 10.02 57.33 10.4325 58.4775 10.86C59.625 11.2875 60.78 11.685 61.9575 12.045C63.1275 12.405 64.38 12.8625 65.7075 13.41C67.035 13.9575 68.2425 14.535 69.315 15.1425C70.395 15.7425 71.3475 16.515 72.18 17.4375C73.0125 18.3675 73.5675 19.3875 73.845 20.505C74.1075 21.555 74.2425 22.605 74.2425 23.655C74.2425 24.93 74.0475 26.1825 73.665 27.3975C73.2825 28.6125 72.8025 29.6625 72.2175 30.5325C71.6325 31.4025 71.0025 32.2125 70.305 32.9475C69.6075 33.6825 68.97 34.2525 68.3925 34.665C67.815 35.0775 67.305 35.37 66.87 35.5425C66.465 35.715 66.1725 35.805 65.9775 35.805C65.82 35.805 65.7375 35.7525 65.7375 35.6475C65.7375 35.5425 65.7975 35.415 65.91 35.2575C66.0225 35.1 66.135 34.9575 66.24 34.8375L66.3975 34.65C66.465 34.5825 66.5475 34.47 66.63 34.32C66.72 34.17 66.8775 33.8625 67.1175 33.3975C67.3575 32.9325 67.56 32.4675 67.7325 31.995C67.905 31.5225 68.07 30.9525 68.22 30.2775C68.37 29.6025 68.445 28.95 68.445 28.32C68.445 26.9925 68.1225 25.7925 67.47 24.72C67.0875 24.075 66.5175 23.5275 65.76 23.0925C65.01 22.6575 64.1775 22.3275 63.2775 22.11C62.3775 21.8925 61.485 21.705 60.6 21.5625C59.715 21.4125 58.83 21.24 57.9525 21.0525C57.0675 20.8575 56.37 20.625 55.8675 20.34V57.4875C55.8675 57.525 55.86 57.5775 55.8375 57.645C55.815 57.7125 55.815 57.7575 55.815 57.78C55.605 59.775 54.615 61.68 52.8375 63.4875C51.0675 65.3025 48.825 66.645 46.11 67.515ZM2.0625 27.5925C1.695 27.5925 1.3875 27.465 1.1325 27.21C0.8775 26.955 0.75 26.6475 0.75 26.28V21.03C0.75 20.6625 0.8775 20.355 1.1325 20.1C1.3875 19.845 1.695 19.7175 2.0625 19.7175H42.75V27.5925H2.0625ZM2.0625 43.3425C1.695 43.3425 1.3875 43.215 1.1325 42.96C0.8775 42.705 0.75 42.3975 0.75 42.03V36.78C0.75 36.4125 0.8775 36.105 1.1325 35.85C1.3875 35.595 1.695 35.4675 2.0625 35.4675H42.75V43.3425H2.0625ZM2.0625 59.0925C1.815 59.0925 1.5975 59.0325 1.395 58.92C1.1925 58.8075 1.035 58.65 0.9225 58.4475C0.81 58.245 0.75 58.02 0.75 57.78V52.53C0.75 52.1625 0.8775 51.855 1.1325 51.6C1.3875 51.345 1.695 51.2175 2.0625 51.2175H28.6275C26.355 53.6175 24.975 56.2425 24.5025 59.0925H2.0625Z" fill="#FFAA10"/>
</svg>
