<?xml version="1.0" encoding="UTF-8" standalone="no"?>
<!-- Generator: Adobe Illustrator 17.1.0, SVG Export Plug-In . SVG Version: 6.00 Build 0)  -->

<svg
   xmlns:dc="http://purl.org/dc/elements/1.1/"
   xmlns:cc="http://creativecommons.org/ns#"
   xmlns:rdf="http://www.w3.org/1999/02/22-rdf-syntax-ns#"
   xmlns:svg="http://www.w3.org/2000/svg"
   xmlns="http://www.w3.org/2000/svg"
   xmlns:sodipodi="http://sodipodi.sourceforge.net/DTD/sodipodi-0.dtd"
   xmlns:inkscape="http://www.inkscape.org/namespaces/inkscape"
   version="1.1"
   id="Capa_1"
   x="0px"
   y="0px"
   viewBox="0 0 265.405 265.405"
   style="enable-background:new 0 0 265.405 265.405;"
   xml:space="preserve"
   sodipodi:docname="stop-button.svg"
   inkscape:version="0.92.4 (f8dce91, 2019-08-02)"><metadata
   id="metadata43"><rdf:RDF><cc:Work
       rdf:about=""><dc:format>image/svg+xml</dc:format><dc:type
         rdf:resource="http://purl.org/dc/dcmitype/StillImage" /></cc:Work></rdf:RDF></metadata><defs
   id="defs41" /><sodipodi:namedview
   pagecolor="#ffffff"
   bordercolor="#666666"
   borderopacity="1"
   objecttolerance="10"
   gridtolerance="10"
   guidetolerance="10"
   inkscape:pageopacity="0"
   inkscape:pageshadow="2"
   inkscape:window-width="686"
   inkscape:window-height="480"
   id="namedview39"
   showgrid="false"
   inkscape:zoom="0.88920706"
   inkscape:cx="132.7025"
   inkscape:cy="132.7025"
   inkscape:window-x="0"
   inkscape:window-y="28"
   inkscape:window-maximized="0"
   inkscape:current-layer="Capa_1" />
<g
   id="g6"
   style="fill:#ffaa10;fill-opacity:1">
	<path
   style="fill:#ffaa10;fill-opacity:1"
   d="M132.703,0C59.53,0,0,59.53,0,132.702s59.53,132.702,132.703,132.702   c73.172,0,132.702-59.53,132.702-132.702S205.875,0,132.703,0z M132.703,250.405C67.801,250.405,15,197.604,15,132.702   S67.801,15,132.703,15c64.901,0,117.702,52.801,117.702,117.702S197.604,250.405,132.703,250.405z"
   id="path2" />
	<path
   style="fill:#ffaa10;fill-opacity:1"
   d="M174.816,73.089H90.589c-9.649,0-17.5,7.851-17.5,17.5v84.227c0,9.649,7.851,17.5,17.5,17.5h84.227   c9.649,0,17.5-7.851,17.5-17.5V90.589C192.316,80.94,184.465,73.089,174.816,73.089z M177.316,174.816c0,1.355-1.145,2.5-2.5,2.5   H90.589c-1.355,0-2.5-1.145-2.5-2.5V90.589c0-1.355,1.145-2.5,2.5-2.5h84.227c1.355,0,2.5,1.145,2.5,2.5V174.816z"
   id="path4" />
</g>
<g
   id="g8">
</g>
<g
   id="g10">
</g>
<g
   id="g12">
</g>
<g
   id="g14">
</g>
<g
   id="g16">
</g>
<g
   id="g18">
</g>
<g
   id="g20">
</g>
<g
   id="g22">
</g>
<g
   id="g24">
</g>
<g
   id="g26">
</g>
<g
   id="g28">
</g>
<g
   id="g30">
</g>
<g
   id="g32">
</g>
<g
   id="g34">
</g>
<g
   id="g36">
</g>
</svg>