<?xml version="1.0" encoding="UTF-8" standalone="no"?>
<svg
   xmlns:dc="http://purl.org/dc/elements/1.1/"
   xmlns:cc="http://creativecommons.org/ns#"
   xmlns:rdf="http://www.w3.org/1999/02/22-rdf-syntax-ns#"
   xmlns:svg="http://www.w3.org/2000/svg"
   xmlns="http://www.w3.org/2000/svg"
   xmlns:sodipodi="http://sodipodi.sourceforge.net/DTD/sodipodi-0.dtd"
   xmlns:inkscape="http://www.inkscape.org/namespaces/inkscape"
   version="1.1"
   viewBox="0 0 512 512"
   enable-background="new 0 0 512 512"
   id="svg10"
   sodipodi:docname="play-button.svg"
   inkscape:version="0.92.4 (f8dce91, 2019-08-02)">
  <metadata
     id="metadata16">
    <rdf:RDF>
      <cc:Work
         rdf:about="">
        <dc:format>image/svg+xml</dc:format>
        <dc:type
           rdf:resource="http://purl.org/dc/dcmitype/StillImage" />
      </cc:Work>
    </rdf:RDF>
  </metadata>
  <defs
     id="defs14" />
  <sodipodi:namedview
     pagecolor="#ffffff"
     bordercolor="#666666"
     borderopacity="1"
     objecttolerance="10"
     gridtolerance="10"
     guidetolerance="10"
     inkscape:pageopacity="0"
     inkscape:pageshadow="2"
     inkscape:window-width="686"
     inkscape:window-height="480"
     id="namedview12"
     showgrid="false"
     inkscape:zoom="0.4609375"
     inkscape:cx="256"
     inkscape:cy="256"
     inkscape:window-x="0"
     inkscape:window-y="28"
     inkscape:window-maximized="0"
     inkscape:current-layer="svg10" />
  <g
     id="g8"
     style="fill:#ffaa10;fill-opacity:1">
    <g
       fill="#231F20"
       id="g6"
       style="fill:#ffaa10;fill-opacity:1">
      <path
         d="m354.2,247.4l-135.1-92.4c-4.2-3.1-15.4-3.1-16.3,8.6v184.8c1,11.7 12.4,11.9 16.3,8.6l135.1-92.4c3.5-2.1 8.3-10.7 0-17.2zm-130.5,81.3v-145.4l106.1,72.7-106.1,72.7z"
         id="path2"
         style="fill:#ffaa10;fill-opacity:1" />
      <path
         d="M256,11C120.9,11,11,120.9,11,256s109.9,245,245,245s245-109.9,245-245S391.1,11,256,11z M256,480.1    C132.4,480.1,31.9,379.6,31.9,256S132.4,31.9,256,31.9S480.1,132.4,480.1,256S379.6,480.1,256,480.1z"
         id="path4"
         style="fill:#ffaa10;fill-opacity:1" />
    </g>
  </g>
</svg>
