<svg viewBox="0 0 1000 1000" fill="none" xmlns="http://www.w3.org/2000/svg">
<path d="M832.2 762.7C832.2 800.4 801.6 831 763.9 831C726.2 831 695.6 800.4 695.6 762.7C695.6 725 726.2 694.4 763.9 694.4C801.6 694.4 832.2 725 832.2 762.7ZM990 423.5V875.8C990 938.2 939.3 988.9 876.9 988.9H123.1C60.7 988.8 10 938.2 10 875.8V423.5C10 371.6 45.2 328.3 92.9 315C92.8 313.4 92.4 312 92.4 310.4C92.4 272.7 123 242.1 160.7 242.1C169.7 242.1 178.2 244 186 247.1L841.5 65.4C841.5 35.5 865.8 11.2 895.7 11.2C925.6 11.2 949.9 35.5 949.9 65.4C949.9 95.3 925.6 119.6 895.7 119.6C876 119.6 859.6 108.6 850.1 93L222.5 281.6C226.6 290.4 229 300.1 229 310.4H876.8C939.3 310.4 990 361.1 990 423.5ZM650.8 536.6H876.9V385.8H650.8V536.6ZM123.1 385.8V536.6H613.1V385.8H123.1ZM160.8 668.5C160.8 658.1 152.4 649.7 142 649.7C131.6 649.7 123.2 658.1 123.2 668.5V856.9C123.2 867.3 131.6 875.7 142 875.7C152.4 875.7 160.8 867.3 160.8 856.9V668.5ZM236.1 668.5C236.1 658.1 227.7 649.7 217.3 649.7C206.9 649.7 198.5 658.1 198.5 668.5V856.9C198.5 867.3 206.9 875.7 217.3 875.7C227.7 875.7 236.1 867.3 236.1 856.9V668.5ZM311.6 668.5C311.6 658.1 303.2 649.7 292.8 649.7C282.4 649.7 273.9 658.1 273.9 668.5V856.9C273.9 867.3 282.3 875.7 292.7 875.7C303.1 875.7 311.5 867.3 311.5 856.9L311.6 668.5ZM386.9 668.5C386.9 658.1 378.5 649.7 368.1 649.7C357.7 649.7 349.3 658.1 349.3 668.5V856.9C349.3 867.3 357.7 875.7 368.1 875.7C378.5 875.7 386.9 867.3 386.9 856.9V668.5ZM462.3 668.5C462.3 658.1 453.9 649.7 443.5 649.7C433.1 649.7 424.7 658.1 424.7 668.5V856.9C424.7 867.3 433.1 875.7 443.5 875.7C453.9 875.7 462.3 867.3 462.3 856.9V668.5ZM537.7 668.5C537.7 658.1 529.3 649.7 518.9 649.7C508.5 649.7 500 658.1 500 668.5V856.9C500 867.3 508.4 875.7 518.8 875.7C529.2 875.7 537.6 867.3 537.6 856.9L537.7 668.5ZM883.2 762.7C883.2 696.8 829.8 643.4 763.9 643.4C698 643.4 644.6 696.8 644.6 762.7C644.6 828.6 698 882 763.9 882C829.8 882 883.2 828.6 883.2 762.7Z" fill="#FFAA10"/>
</svg>
